G75*
%MOIN*%
%OFA0B0*%
%FSLAX24Y24*%
%IPPOS*%
%LPD*%
%AMOC8*
5,1,8,0,0,1.08239X$1,22.5*
%
%ADD10C,0.0396*%
%ADD11C,0.0500*%
%ADD12OC8,0.0600*%
%ADD13OC8,0.0850*%
%ADD14C,0.0700*%
%ADD15OC8,0.0480*%
%ADD16C,0.0160*%
D10*
X017811Y015531D03*
X018598Y015531D03*
X019386Y015531D03*
X020173Y015531D03*
X020961Y015531D03*
X021748Y015531D03*
X022535Y015531D03*
X023323Y015531D03*
D11*
X005378Y019872D02*
X005378Y020372D01*
X005390Y021069D02*
X005390Y021569D01*
X005390Y022250D02*
X005390Y022750D01*
X005390Y023431D02*
X005390Y023931D01*
D12*
X018925Y005028D03*
X019925Y005028D03*
X020925Y005028D03*
X021925Y005028D03*
X022925Y005028D03*
X023925Y005028D03*
D13*
X015050Y008862D03*
X012696Y012433D03*
X018596Y012433D03*
X020950Y008862D03*
D14*
X001567Y020409D03*
X001567Y021409D03*
X001567Y022409D03*
X001567Y023409D03*
D15*
X025000Y012339D03*
X026890Y011559D03*
X025000Y010339D03*
X026890Y013559D03*
D16*
X023898Y013622D02*
X023898Y005055D01*
X023925Y005028D01*
X022925Y005028D02*
X022925Y013689D01*
X022559Y014055D01*
X022559Y015508D01*
X022535Y015531D01*
X021748Y015531D02*
X021748Y005205D01*
X021925Y005028D01*
X020950Y005052D02*
X020925Y005028D01*
X020925Y004350D01*
X020472Y003898D01*
X019488Y003898D01*
X018937Y004449D01*
X018937Y005016D01*
X018925Y005028D01*
X019925Y005028D02*
X019925Y011894D01*
X020197Y012165D01*
X020197Y015508D01*
X020173Y015531D01*
X020961Y015531D02*
X020961Y008873D01*
X020950Y008862D01*
X020950Y005052D01*
X017406Y008862D02*
X019370Y010827D01*
X019370Y015516D01*
X019386Y015531D01*
X018598Y015531D02*
X018598Y012436D01*
X018596Y012433D01*
X017811Y013402D02*
X016890Y012480D01*
X012743Y012480D01*
X012696Y012433D01*
X017811Y013402D02*
X017811Y015531D01*
X023323Y015531D02*
X023323Y014197D01*
X023898Y013622D01*
X017406Y008862D02*
X015050Y008862D01*
X005378Y020122D02*
X005091Y020409D01*
X001567Y020409D01*
X001567Y021409D02*
X005299Y021409D01*
X005390Y021319D01*
X005299Y022409D02*
X005390Y022500D01*
X005299Y022409D02*
X001567Y022409D01*
X001567Y023409D02*
X005118Y023409D01*
X005390Y023681D01*
M02*
