G75*
%MOIN*%
%OFA0B0*%
%FSLAX24Y24*%
%IPPOS*%
%LPD*%
%AMOC8*
5,1,8,0,0,1.08239X$1,22.5*
%
%ADD10R,0.0800X0.0260*%
%ADD11R,0.0512X0.0591*%
%ADD12R,0.0591X0.0591*%
%ADD13C,0.0160*%
D10*
X003940Y002486D03*
X003940Y002986D03*
X003940Y003486D03*
X003940Y003986D03*
X003940Y004486D03*
X003940Y004986D03*
X003940Y005486D03*
X003940Y005986D03*
X006360Y005986D03*
X006360Y005486D03*
X006360Y004986D03*
X006360Y004486D03*
X006360Y003986D03*
X006360Y003486D03*
X006360Y002986D03*
X006360Y002486D03*
D11*
X005516Y006823D03*
X004768Y006823D03*
D12*
X000819Y000752D03*
X000815Y001697D03*
X000811Y002760D03*
X000811Y003906D03*
X000807Y005087D03*
X000764Y006228D03*
X000760Y007370D03*
X004756Y007846D03*
X005705Y007799D03*
X008843Y006035D03*
X008819Y005209D03*
X008827Y004264D03*
D13*
X008819Y004252D02*
X007053Y002486D01*
X006360Y002486D01*
X006360Y002986D02*
X005951Y002986D01*
X005591Y003346D01*
X005591Y005709D01*
X005787Y005906D01*
X005827Y005906D01*
X005945Y006024D01*
X006024Y006024D01*
X006173Y006173D01*
X006360Y005986D01*
X006173Y006173D02*
X005523Y006823D01*
X005516Y006823D01*
X005665Y007012D01*
X005705Y007799D01*
X006457Y008504D02*
X002913Y008504D01*
X002520Y008110D01*
X002520Y006772D01*
X001929Y006260D01*
X001929Y005433D01*
X001575Y005079D01*
X000815Y005079D01*
X000807Y005087D01*
X001929Y005000D02*
X001929Y004213D01*
X001614Y003898D01*
X000819Y003898D01*
X000811Y003906D01*
X001929Y003622D02*
X001929Y002992D01*
X001693Y002756D01*
X000815Y002756D01*
X000811Y002760D01*
X000815Y001697D02*
X000819Y001693D01*
X001811Y001693D01*
X002283Y002165D01*
X002283Y003504D01*
X002598Y003819D01*
X002598Y004567D01*
X003018Y004986D01*
X003940Y004986D01*
X003940Y004486D02*
X003699Y004486D01*
X003697Y004488D01*
X003189Y004488D01*
X002953Y004252D01*
X002953Y003780D01*
X002598Y003425D01*
X002598Y001929D01*
X001417Y000748D01*
X000823Y000748D01*
X000819Y000752D01*
X002953Y002205D02*
X002953Y002874D01*
X003565Y003486D01*
X003940Y003486D01*
X003940Y003986D02*
X003969Y004016D01*
X004488Y004016D01*
X004764Y003937D01*
X004764Y002598D01*
X004455Y002486D01*
X003940Y002486D01*
X003940Y002986D02*
X003537Y002986D01*
X003307Y002756D01*
X003307Y002244D01*
X003504Y002047D01*
X007165Y002047D01*
X008661Y003543D01*
X009094Y003543D01*
X009370Y003819D01*
X009370Y005039D01*
X009213Y005197D01*
X008831Y005197D01*
X008819Y005209D01*
X008854Y006024D02*
X008843Y006035D01*
X008854Y006024D02*
X009331Y006024D01*
X009685Y005669D01*
X009685Y003740D01*
X009173Y003228D01*
X008780Y003228D01*
X007283Y001732D01*
X003425Y001732D01*
X002953Y002205D01*
X001929Y003622D02*
X002244Y003937D01*
X002244Y004921D01*
X002809Y005486D01*
X003940Y005486D01*
X003940Y005986D02*
X003152Y005986D01*
X003150Y005984D01*
X002913Y005984D01*
X001929Y005000D01*
X000764Y006228D02*
X000835Y006299D01*
X001417Y006299D01*
X002205Y006969D01*
X002205Y008228D01*
X002795Y008819D01*
X006614Y008819D01*
X007362Y008189D01*
X007362Y004291D01*
X007018Y003986D01*
X006360Y003986D01*
X006360Y003486D02*
X007187Y003486D01*
X007717Y003976D01*
X007717Y008386D01*
X006811Y009094D01*
X002638Y009094D01*
X001772Y008150D01*
X001772Y007756D01*
X001417Y007402D01*
X000791Y007402D01*
X000760Y007370D01*
X004488Y004016D02*
X004764Y004094D01*
X004764Y006181D01*
X004768Y006382D01*
X004768Y006823D01*
X004756Y007386D01*
X004756Y007846D01*
X006457Y008504D02*
X007047Y007992D01*
X007047Y004606D01*
X006888Y004486D01*
X006360Y004486D01*
M02*
