G75*
%MOIN*%
%OFA0B0*%
%FSLAX24Y24*%
%IPPOS*%
%LPD*%
%AMOC8*
5,1,8,0,0,1.08239X$1,22.5*
%
%ADD10C,0.0000*%
%ADD11R,0.0800X0.0260*%
%ADD12R,0.0512X0.0591*%
%ADD13R,0.0591X0.0591*%
%ADD14C,0.0160*%
D10*
X000100Y000100D02*
X000100Y010100D01*
X010147Y010139D01*
X010139Y000100D01*
X000100Y000100D01*
D11*
X004040Y002586D03*
X004040Y003086D03*
X004040Y003586D03*
X004040Y004086D03*
X004040Y004586D03*
X004040Y005086D03*
X004040Y005586D03*
X004040Y006086D03*
X006460Y006086D03*
X006460Y005586D03*
X006460Y005086D03*
X006460Y004586D03*
X006460Y004086D03*
X006460Y003586D03*
X006460Y003086D03*
X006460Y002586D03*
D12*
X005616Y006923D03*
X004868Y006923D03*
D13*
X004856Y007946D03*
X005805Y007899D03*
X008943Y006135D03*
X008919Y005309D03*
X008927Y004364D03*
X000911Y004006D03*
X000907Y005187D03*
X000864Y006328D03*
X000860Y007470D03*
X000911Y002860D03*
X000915Y001797D03*
X000919Y000852D03*
D14*
X000923Y000848D01*
X001517Y000848D01*
X002698Y002029D01*
X002698Y003525D01*
X003053Y003880D01*
X003053Y004352D01*
X003289Y004588D01*
X003797Y004588D01*
X003799Y004586D01*
X004040Y004586D01*
X004069Y004116D02*
X004040Y004086D01*
X004069Y004116D02*
X004588Y004116D01*
X004864Y004037D01*
X004864Y002698D01*
X004555Y002586D01*
X004040Y002586D01*
X004040Y003086D02*
X003637Y003086D01*
X003407Y002856D01*
X003407Y002344D01*
X003604Y002147D01*
X007265Y002147D01*
X008761Y003643D01*
X009194Y003643D01*
X009470Y003919D01*
X009470Y005139D01*
X009313Y005297D01*
X008931Y005297D01*
X008919Y005309D01*
X008954Y006124D02*
X008943Y006135D01*
X008954Y006124D02*
X009431Y006124D01*
X009785Y005769D01*
X009785Y003840D01*
X009273Y003328D01*
X008880Y003328D01*
X007383Y001832D01*
X003525Y001832D01*
X003053Y002305D01*
X003053Y002974D01*
X003665Y003586D01*
X004040Y003586D01*
X004588Y004116D02*
X004864Y004194D01*
X004864Y006281D01*
X004868Y006482D01*
X004868Y006923D01*
X004856Y007486D01*
X004856Y007946D01*
X005805Y007899D02*
X005765Y007112D01*
X005616Y006923D01*
X005623Y006923D01*
X006273Y006273D01*
X006124Y006124D01*
X006045Y006124D01*
X005927Y006006D01*
X005887Y006006D01*
X005691Y005809D01*
X005691Y003446D01*
X006051Y003086D01*
X006460Y003086D01*
X006460Y002586D02*
X007153Y002586D01*
X008919Y004352D01*
X007817Y004076D02*
X007817Y008486D01*
X006911Y009194D01*
X002738Y009194D01*
X001872Y008250D01*
X001872Y007856D01*
X001517Y007502D01*
X000891Y007502D01*
X000860Y007470D01*
X000935Y006399D02*
X000864Y006328D01*
X000935Y006399D02*
X001517Y006399D01*
X002305Y007069D01*
X002305Y008328D01*
X002895Y008919D01*
X006714Y008919D01*
X007462Y008289D01*
X007462Y004391D01*
X007118Y004086D01*
X006460Y004086D01*
X006460Y003586D02*
X007287Y003586D01*
X007817Y004076D01*
X007147Y004706D02*
X007147Y008092D01*
X006557Y008604D01*
X003013Y008604D01*
X002620Y008210D01*
X002620Y006872D01*
X002029Y006360D01*
X002029Y005533D01*
X001675Y005179D01*
X000915Y005179D01*
X000907Y005187D01*
X002029Y005100D02*
X002029Y004313D01*
X001714Y003998D01*
X000919Y003998D01*
X000911Y004006D01*
X002029Y003722D02*
X002029Y003092D01*
X001793Y002856D01*
X000915Y002856D01*
X000911Y002860D01*
X000915Y001797D02*
X000919Y001793D01*
X001911Y001793D01*
X002383Y002265D01*
X002383Y003604D01*
X002698Y003919D01*
X002698Y004667D01*
X003118Y005086D01*
X004040Y005086D01*
X004040Y005586D02*
X002909Y005586D01*
X002344Y005021D01*
X002344Y004037D01*
X002029Y003722D01*
X002029Y005100D02*
X003013Y006084D01*
X003250Y006084D01*
X003252Y006086D01*
X004040Y006086D01*
X006273Y006273D02*
X006460Y006086D01*
X007147Y004706D02*
X006988Y004586D01*
X006460Y004586D01*
M02*
