<?xml version="1.0" encoding="UTF-8" standalone="no"?>
<!-- Created with Inkscape (http://www.inkscape.org/) -->

<svg
   xmlns:dc="http://purl.org/dc/elements/1.1/"
   xmlns:cc="http://creativecommons.org/ns#"
   xmlns:rdf="http://www.w3.org/1999/02/22-rdf-syntax-ns#"
   xmlns:svg="http://www.w3.org/2000/svg"
   xmlns="http://www.w3.org/2000/svg"
   xmlns:sodipodi="http://sodipodi.sourceforge.net/DTD/sodipodi-0.dtd"
   xmlns:inkscape="http://www.inkscape.org/namespaces/inkscape"
   width="1080"
   height="810"
   id="svg3168"
   version="1.1"
   inkscape:version="0.48.4 r9939"
   sodipodi:docname="New document 6">
  <defs
     id="defs3170" />
  <sodipodi:namedview
     id="base"
     pagecolor="#ffffff"
     bordercolor="#666666"
     borderopacity="1.0"
     inkscape:pageopacity="0.0"
     inkscape:pageshadow="2"
     inkscape:zoom="0.35"
     inkscape:cx="375"
     inkscape:cy="520"
     inkscape:document-units="px"
     inkscape:current-layer="layer1"
     showgrid="false"
     inkscape:window-width="1053"
     inkscape:window-height="673"
     inkscape:window-x="1"
     inkscape:window-y="24"
     inkscape:window-maximized="0" />
  <metadata
     id="metadata3173">
    <rdf:RDF>
      <cc:Work
         rdf:about="">
        <dc:format>image/svg+xml</dc:format>
        <dc:type
           rdf:resource="http://purl.org/dc/dcmitype/StillImage" />
        <dc:title></dc:title>
      </cc:Work>
    </rdf:RDF>
  </metadata>
  <g
     inkscape:label="Layer 1"
     inkscape:groupmode="layer"
     id="layer1"
     transform="translate(0,-242.36218)">
    <g
       transform="translate(105,295.21932)"
       id="g3091">
      <polygon
         style="fill:none;stroke:#000000;stroke-width:0.89999998"
         points="21.24,517.5 21.24,472.5 0,472.5 0,427.5 21.24,427.5 21.24,382.5 0,382.5 0,337.5 21.24,337.5 21.24,292.5 0,292.5 0,247.5 21.24,247.5 21.24,202.5 0,202.5 0,157.5 21.24,157.5 21.24,112.5 0,112.5 0,56.25 21.24,56.25 21.24,0 56.25,0 56.25,21.24 112.5,21.24 112.5,0 157.5,0 157.5,21.24 202.5,21.24 202.5,0 247.5,0 247.5,21.24 292.5,21.24 292.5,0 337.5,0 337.5,21.24 382.5,21.24 382.5,0 427.5,0 427.5,21.24 472.5,21.24 472.5,0 517.5,0 517.5,21.24 562.5,21.24 562.5,0 607.5,0 607.5,21.24 652.5,21.24 652.5,0 697.5,0 697.5,21.24 742.5,21.24 742.5,0 787.5,0 787.5,21.24 843.75,21.24 843.75,0 878.76,0 878.76,56.25 900,56.25 900,112.5 878.76,112.5 878.76,157.5 900,157.5 900,202.5 878.76,202.5 878.76,247.5 900,247.5 900,292.5 878.76,292.5 878.76,337.5 900,337.5 900,382.5 878.76,382.5 878.76,427.5 900,427.5 900,472.5 878.76,472.5 878.76,517.5 900,517.5 900,562.5 878.76,562.5 878.76,607.5 900,607.5 900,663.75 878.76,663.75 878.76,720 843.75,720 843.75,698.76 787.5,698.76 787.5,720 742.5,720 742.5,698.76 697.5,698.76 697.5,720 652.5,720 652.5,698.76 607.5,698.76 607.5,720 562.5,720 562.5,698.76 517.5,698.76 517.5,720 472.5,720 472.5,698.76 427.5,698.76 427.5,720 382.5,720 382.5,698.76 337.5,698.76 337.5,720 292.5,720 292.5,698.76 247.5,698.76 247.5,720 202.5,720 202.5,698.76 157.5,698.76 157.5,720 112.5,720 112.5,698.76 56.25,698.76 56.25,720 21.24,720 21.24,663.75 0,663.75 0,607.5 21.24,607.5 21.24,562.5 0,562.5 0,517.5 "
         id="polygon3093" />
      <g
         transform="scale(0.02197266,0.02197266)"
         id="g3095">
        <g
           transform="translate(-2139,819)"
           id="g3097">
          <path
             transform="matrix(1,0,0,-1,36864,28672)"
             d="m 686,1114 c 144,0 255.833,-49.167 335.5,-147.5 C 1101.167,868.167 1141,729 1141,549 1141,369 1100.833,229.167 1020.5,129.5 940.167,29.833 828.667,-20 686,-20 614.667,-20 549.5,-6.833 490.5,19.5 431.5,45.833 382,86.333 342,141 H 330 L 295,0 H 176 v 1556 h 166 v -378 c 0,-84.667 -2.66699,-160.667 -8,-228 h 8 c 77.333,109.333 192,164 344,164 z M 662,975 c -113.333,0 -194.999,-32.499 -244.999,-97.499 -50,-65 -75,-174.5 -75,-328.5 0,-154 25.667,-264.167 77,-330.5 51.333,-66.333 133.666,-99.5 246.999,-99.5 102,0 178,37.167 228,111.5 50,74.333 75,181.166 75,320.499 0,142.667 -25,249 -75,319 -50,70 -127.333,105 -232,105 z"
             id="path3099"
             inkscape:connector-curvature="0"
             style="fill:#000000;stroke-width:0" />
          <path
             transform="matrix(1,0,0,-1,38119,28672)"
             d="m 850,0 -33.001,156 h -8 C 754.332,87.333 699.832,40.833 645.499,16.5 591.166,-7.833 523.333,-20 442,-20 333.333,-20 248.166,8 186.499,64 c -61.667,56 -92.5,135.667 -92.5,239 0,221.333 177,337.333 531,348 l 186,6 v 68 c 0,86 -18.5,149.5 -55.5,190.5 -37,41 -96.167,61.5 -177.5,61.5 C 486.666,977 383.333,949 268,893 l -51,127 c 54,29.333 113.167,52.333 177.5,69 64.333,16.667 128.833,25 193.5,25 130.667,0 227.5,-29 290.5,-87 63,-58 94.5,-151 94.5,-279 V 0 H 850 z M 474.999,117 c 103.333,0 184.501,28.333 243.501,85 59,56.667 88.5,136 88.5,238 v 99 L 641,532 C 509,527.33301 413.833,506.833 355.5,470.5 297.167,434.167 268,377.667 268,301 c 0,-60 18.167,-105.667 54.5,-137 36.333,-31.333 87.166,-47 152.499,-47 z"
             id="path3101"
             inkscape:connector-curvature="0"
             style="fill:#000000;stroke-width:0" />
          <path
             transform="matrix(1,0,0,-1,39092,28672)"
             d="m 614,-20 c -158.667,0 -281.502,48.8301 -368.502,146.497 -87,97.6669 -130.5,235.834 -130.5,414.501 0,183.333 44.167,325 132.5,425 88.333,100 214.166,150 377.499,150 52.667,0 105.334,-5.667 158.001,-17 52.667,-11.333 94,-24.666 124,-39.999 l -51,-141 c -36.667,14.667 -76.667,26.834 -120,36.501 -43.333,9.667 -81.666,14.5 -114.999,14.5 -222.667,0 -334,-142 -334,-426 0,-134.667 27.167,-238 81.5,-310 54.333,-72 134.833,-108 241.5,-108 91.333,0 185,19.667 281,59 V 37 C 817.666,-1 725.333,-20 614,-20 z"
             id="path3103"
             inkscape:connector-curvature="0"
             style="fill:#000000;stroke-width:0" />
          <path
             transform="matrix(1,0,0,-1,40067,28672)"
             d="m 340,561 c 28.667,40.667 72.333,94.001 131,160.001 l 354,375 h 197 l -444,-467 475,-629 H 852 l -387,518 -125,-108 v -410 H 176 v 1556 h 164 v -825 C 340,694.334 337.33301,637.667 332,561 h 8 z"
             id="path3105"
             inkscape:connector-curvature="0"
             style="fill:#000000;stroke-width:0" />
        </g>
      </g>
      <circle
         cx="90"
         cy="90"
         r="22.5"
         style="fill:none;stroke:#000000;stroke-width:0.89999998"
         id="circle3107"
         d="m 112.5,90 c 0,12.42641 -10.07359,22.5 -22.5,22.5 -12.426407,0 -22.5,-10.07359 -22.5,-22.5 0,-12.426407 10.073593,-22.5 22.5,-22.5 12.42641,0 22.5,10.073593 22.5,22.5 z"
         sodipodi:cx="90"
         sodipodi:cy="90"
         sodipodi:rx="22.5"
         sodipodi:ry="22.5" />
    </g>
  </g>
</svg>
