<?xml version="1.0" encoding="UTF-8" standalone="no"?>
<!-- Created with Inkscape (http://www.inkscape.org/) -->

<svg
   xmlns:dc="http://purl.org/dc/elements/1.1/"
   xmlns:cc="http://creativecommons.org/ns#"
   xmlns:rdf="http://www.w3.org/1999/02/22-rdf-syntax-ns#"
   xmlns:svg="http://www.w3.org/2000/svg"
   xmlns="http://www.w3.org/2000/svg"
   xmlns:sodipodi="http://sodipodi.sourceforge.net/DTD/sodipodi-0.dtd"
   xmlns:inkscape="http://www.inkscape.org/namespaces/inkscape"
   width="1620"
   height="1080"
   id="svg3139"
   version="1.1"
   inkscape:version="0.48.4 r9939"
   sodipodi:docname="New document 4">
  <defs
     id="defs3141" />
  <sodipodi:namedview
     id="base"
     pagecolor="#ffffff"
     bordercolor="#666666"
     borderopacity="1.0"
     inkscape:pageopacity="0.0"
     inkscape:pageshadow="2"
     inkscape:zoom="0.87390762"
     inkscape:cx="784.95857"
     inkscape:cy="691.42539"
     inkscape:document-units="in"
     inkscape:current-layer="layer1"
     showgrid="false"
     units="in"
     inkscape:snap-global="true"
     inkscape:window-width="1438"
     inkscape:window-height="850"
     inkscape:window-x="0"
     inkscape:window-y="0"
     inkscape:window-maximized="1" />
  <metadata
     id="metadata3144">
    <rdf:RDF>
      <cc:Work
         rdf:about="">
        <dc:format>image/svg+xml</dc:format>
        <dc:type
           rdf:resource="http://purl.org/dc/dcmitype/StillImage" />
        <dc:title></dc:title>
      </cc:Work>
    </rdf:RDF>
  </metadata>
  <g
     inkscape:label="Layer 1"
     inkscape:groupmode="layer"
     id="layer1"
     transform="translate(0,27.641)">
    <g
       transform="translate(-243.65143,-2.4992486)"
       id="g3087"
       style="fill:#000000;fill-opacity:0.12019228;stroke:#fdfd00;stroke-opacity:1">
      <polygon
         style="fill:#000000;fill-opacity:0.12019228;stroke:#fdfd00;stroke-width:0.89999998;stroke-opacity:1"
         points="832.5,21.24 832.5,0 877.5,0 877.5,21.24 922.5,21.24 922.5,0 967.5,0 967.5,21.24 1023.75,21.24 1023.75,0 1080,0 1080,56.25 1058.76,56.25 1058.76,112.5 1080,112.5 1080,157.5 1058.76,157.5 1058.76,202.5 1080,202.5 1080,247.5 1058.76,247.5 1058.76,292.5 1080,292.5 1080,337.5 1058.76,337.5 1058.76,382.5 1080,382.5 1080,427.5 1058.76,427.5 1058.76,472.5 1080,472.5 1080,517.5 1058.76,517.5 1058.76,562.5 1080,562.5 1080,607.5 1058.76,607.5 1058.76,663.75 1080,663.75 1080,720 1023.75,720 1023.75,698.76 967.5,698.76 967.5,720 922.5,720 922.5,698.76 877.5,698.76 877.5,720 832.5,720 832.5,698.76 787.5,698.76 787.5,720 742.5,720 742.5,698.76 697.5,698.76 697.5,720 652.5,720 652.5,698.76 607.5,698.76 607.5,720 562.5,720 562.5,698.76 517.5,698.76 517.5,720 472.5,720 472.5,698.76 427.5,698.76 427.5,720 382.5,720 382.5,698.76 337.5,698.76 337.5,720 292.5,720 292.5,698.76 247.5,698.76 247.5,720 202.5,720 202.5,698.76 157.5,698.76 157.5,720 112.5,720 112.5,698.76 56.25,698.76 56.25,720 0,720 0,663.75 21.24,663.75 21.24,607.5 0,607.5 0,562.5 21.24,562.5 21.24,517.5 0,517.5 0,472.5 21.24,472.5 21.24,427.5 0,427.5 0,382.5 21.24,382.5 21.24,337.5 0,337.5 0,292.5 21.24,292.5 21.24,247.5 0,247.5 0,202.5 21.24,202.5 21.24,157.5 0,157.5 0,112.5 21.24,112.5 21.24,56.25 0,56.25 0,0 56.25,0 56.25,21.24 112.5,21.24 112.5,0 157.5,0 157.5,21.24 202.5,21.24 202.5,0 247.5,0 247.5,21.24 292.5,21.24 292.5,0 337.5,0 337.5,21.24 382.5,21.24 382.5,0 427.5,0 427.5,21.24 472.5,21.24 472.5,0 517.5,0 517.5,21.24 562.5,21.24 562.5,0 607.5,0 607.5,21.24 652.5,21.24 652.5,0 697.5,0 697.5,21.24 742.5,21.24 742.5,0 787.5,0 787.5,21.24 "
         id="polygon3089" />
    </g>
    <rect
       style="fill:#000000;fill-opacity:0.12019228;stroke:#fdfd00;stroke-opacity:1"
       id="rect4799"
       width="22.5"
       height="675"
       x="813.58716"
       y="20.213285" />
  </g>
</svg>
