<?xml version="1.0" encoding="UTF-8" standalone="no"?>
<svg
   xmlns:dc="http://purl.org/dc/elements/1.1/"
   xmlns:cc="http://creativecommons.org/ns#"
   xmlns:rdf="http://www.w3.org/1999/02/22-rdf-syntax-ns#"
   xmlns:svg="http://www.w3.org/2000/svg"
   xmlns="http://www.w3.org/2000/svg"
   xmlns:sodipodi="http://sodipodi.sourceforge.net/DTD/sodipodi-0.dtd"
   xmlns:inkscape="http://www.inkscape.org/namespaces/inkscape"
   version="1.1"
   width="1620"
   height="1080"
   viewBox="0 0 1619.9999 1079.9998"
   id="svg3081"
   inkscape:version="0.48.4 r9939"
   sodipodi:docname="caseplans-3.svg">
  <metadata
     id="metadata3137">
    <rdf:RDF>
      <cc:Work
         rdf:about="">
        <dc:format>image/svg+xml</dc:format>
        <dc:type
           rdf:resource="http://purl.org/dc/dcmitype/StillImage" />
        <dc:title></dc:title>
      </cc:Work>
    </rdf:RDF>
  </metadata>
  <defs
     id="defs3135" />
  <sodipodi:namedview
     pagecolor="#ffffff"
     bordercolor="#666666"
     borderopacity="1"
     objecttolerance="10"
     gridtolerance="10"
     guidetolerance="10"
     inkscape:pageopacity="0"
     inkscape:pageshadow="2"
     inkscape:window-width="1438"
     inkscape:window-height="850"
     id="namedview3133"
     showgrid="false"
     inkscape:document-units="in"
     units="in"
     inkscape:zoom="0.37837838"
     inkscape:cx="1100.5714"
     inkscape:cy="726.78571"
     inkscape:window-x="0"
     inkscape:window-y="0"
     inkscape:window-maximized="1"
     inkscape:current-layer="g3125" />
  <!-- Front-->
  <!-- Back-->
  <!-- Left-->
  <!-- Right-->
  <!-- Top-->
  <g
     transform="translate(9.2857153,72.928331)"
     id="g3125">
    <polygon
       style="fill:#000000;stroke:#ffff00;stroke-width:0.89999998000000003;fill-opacity:0.15384617000000000;stroke-opacity:1"
       points="1058.76,787.5 1080,787.5 1080,843.75 1058.76,843.75 1058.76,878.76 1023.75,878.76 1023.75,900 967.5,900 967.5,878.76 922.5,878.76 922.5,900 877.5,900 877.5,878.76 832.5,878.76 832.5,900 787.5,900 787.5,878.76 742.5,878.76 742.5,900 697.5,900 697.5,878.76 652.5,878.76 652.5,900 607.5,900 607.5,878.76 562.5,878.76 562.5,900 517.5,900 517.5,878.76 472.5,878.76 472.5,900 427.5,900 427.5,878.76 382.5,878.76 382.5,900 337.5,900 337.5,878.76 292.5,878.76 292.5,900 247.5,900 247.5,878.76 202.5,878.76 202.5,900 157.5,900 157.5,878.76 112.5,878.76 112.5,900 56.25,900 56.25,878.76 21.24,878.76 21.24,843.75 0,843.75 0,787.5 21.24,787.5 21.24,742.5 0,742.5 0,697.5 21.24,697.5 21.24,652.5 0,652.5 0,607.5 21.24,607.5 21.24,562.5 0,562.5 0,517.5 21.24,517.5 21.24,472.5 0,472.5 0,427.5 21.24,427.5 21.24,382.5 0,382.5 0,337.5 21.24,337.5 21.24,292.5 0,292.5 0,247.5 21.24,247.5 21.24,202.5 0,202.5 0,157.5 21.24,157.5 21.24,112.5 0,112.5 0,56.25 21.24,56.25 21.24,21.24 56.25,21.24 56.25,0 112.5,0 112.5,21.24 157.5,21.24 157.5,0 202.5,0 202.5,21.24 247.5,21.24 247.5,0 292.5,0 292.5,21.24 337.5,21.24 337.5,0 382.5,0 382.5,21.24 427.5,21.24 427.5,0 472.5,0 472.5,21.24 517.5,21.24 517.5,0 562.5,0 562.5,21.24 607.5,21.24 607.5,0 652.5,0 652.5,21.24 697.5,21.24 697.5,0 742.5,0 742.5,21.24 787.5,21.24 787.5,0 832.5,0 832.5,21.24 877.5,21.24 877.5,0 922.5,0 922.5,21.24 967.5,21.24 967.5,0 1023.75,0 1023.75,21.24 1058.76,21.24 1058.76,56.25 1080,56.25 1080,112.5 1058.76,112.5 1058.76,157.5 1080,157.5 1080,202.5 1058.76,202.5 1058.76,247.5 1080,247.5 1080,292.5 1058.76,292.5 1058.76,337.5 1080,337.5 1080,382.5 1058.76,382.5 1058.76,427.5 1080,427.5 1080,472.5 1058.76,472.5 1058.76,517.5 1080,517.5 1080,562.5 1058.76,562.5 1058.76,607.5 1080,607.5 1080,652.5 1058.76,652.5 1058.76,697.5 1080,697.5 1080,742.5 1058.76,742.5 "
       id="polygon3127" />
  </g>
  <!-- Bottom-->
  <rect
     style="fill:#000000;fill-opacity:0.12019228;stroke:#fdfd00;stroke-width:1.09697986;stroke-opacity:1"
     id="rect4799"
     width="21.403021"
     height="853.90295"
     x="1065.5839"
     y="95.76265" />
</svg>
