%
M48
M72
T01C0.0236
T02C0.0315
T03C0.0320
T04C0.0400
%
T01
X17811Y15531
X18598Y15531
X19386Y15531
X20173Y15531
X20961Y15531
X21748Y15531
X22535Y15531
X23323Y15531
T02
X5378Y20122
X5390Y21319
X5390Y22500
X5390Y23681
T03
X25000Y12339
X26890Y11559
X25000Y10339
X26890Y13559
T04
X15050Y8862
X12696Y12433
X18596Y12433
X20950Y8862
X20925Y5028
X21925Y5028
X22925Y5028
X23925Y5028
X19925Y5028
X18925Y5028
X1567Y20409
X1567Y21409
X1567Y22409
X1567Y23409
M30
