%
M48
M72
T01C0.0236
T02C0.0315
T03C0.0320
T04C0.0400
%
T01
X17756Y15512
X18543Y15512
X19331Y15512
X20118Y15512
X20906Y15512
X21693Y15512
X22480Y15512
X23268Y15512
T02
X5323Y20102
X5335Y21299
X5335Y22480
X5335Y23661
T03
X16181Y5961
X17165Y5961
X17165Y3961
X16181Y3961
T04
X15050Y8862
X12696Y12433
X18596Y12433
X20950Y8862
X20925Y5028
X19925Y5028
X18925Y5028
X21925Y5028
X22925Y5028
X23925Y5028
X1567Y20409
X1567Y21409
X1567Y22409
X1567Y23409
M30
